<svg xmlns="http://www.w3.org/2000/svg" version="1.1" xmlns:xlink="http://www.w3.org/1999/xlink" xmlns:svgjs="http://svgjs.dev/svgjs" width="1500" height="276" viewBox="0 0 1500 276"><g transform="matrix(1,0,0,1,-0.9090909090909918,-0.25833537768852466)"><svg viewBox="0 0 396 73" data-background-color="#000000" preserveAspectRatio="xMidYMid meet" height="276" width="1500" xmlns="http://www.w3.org/2000/svg" xmlns:xlink="http://www.w3.org/1999/xlink"><g id="tight-bounds" transform="matrix(1,0,0,1,0.2400000000000091,0.06832783540312448)"><svg viewBox="0 0 395.52 72.86334432919378" height="72.86334432919378" width="395.52"><g><svg viewBox="0 0 595.8185286785007 109.76266841832326" height="72.86334432919378" width="395.52"><g><rect width="7.162453482661505" height="79.82017493517718" x="174.38619696897666" y="14.97124674157304" fill="#ffffff" opacity="1" stroke-width="0" stroke="transparent" fill-opacity="1" class="rect-yte-0" data-fill-palette-color="primary" rx="1%" id="yte-0" data-palette-color="#ffffff"></rect></g><g transform="matrix(1,0,0,1,200.29852867850076,15.169804390665519)"><svg viewBox="0 0 395.52 79.42305963699222" height="79.42305963699222" width="395.52"><g id="textblocktransform"><svg viewBox="0 0 395.52 79.42305963699222" height="79.42305963699222" width="395.52" id="textblock"><g><svg viewBox="0 0 395.52 79.42305963699222" height="79.42305963699222" width="395.52"><g transform="matrix(1,0,0,1,0,0)"><svg width="395.52" viewBox="2.25 -34.1 173.53 34.85" height="79.42305963699222" data-palette-color="#ffffff"><g class="wordmark-text-0" data-fill-palette-color="primary" id="text-0"><path d="M26.85-26.55L26.85-26.55Q26.85-25.6 26.33-24.88 25.8-24.15 25.1-23.75L25.1-23.75Q23.85-24.65 22.2-25.35 20.55-26.05 18.1-26.05L18.1-26.05Q15.3-26.05 13.18-24.8 11.05-23.55 9.85-21.13 8.65-18.7 8.65-15.15L8.65-15.15Q8.65-9.8 11.3-7.05 13.95-4.3 18.4-4.3L18.4-4.3Q20.75-4.3 22.48-4.98 24.2-5.65 25.45-6.45L25.45-6.45Q26.1-6.05 26.58-5.33 27.05-4.6 27.05-3.6L27.05-3.6Q27.05-2.8 26.63-2.13 26.2-1.45 25.2-0.9L25.2-0.9Q24.15-0.3 22.3 0.23 20.45 0.75 17.7 0.75L17.7 0.75Q13.4 0.75 9.88-0.98 6.35-2.7 4.3-6.23 2.25-9.75 2.25-15.15L2.25-15.15Q2.25-20.4 4.33-23.95 6.4-27.5 9.83-29.33 13.25-31.15 17.35-31.15L17.35-31.15Q20.25-31.15 22.38-30.5 24.5-29.85 25.68-28.8 26.85-27.75 26.85-26.55ZM31.95-30.7L31.95-30.7Q31.95-32.15 32.95-33.13 33.95-34.1 35.45-34.1L35.45-34.1Q37.05-34.1 38-33.13 38.95-32.15 38.95-30.7L38.95-30.7Q38.95-29.3 38-28.3 37.05-27.3 35.45-27.3L35.45-27.3Q33.95-27.3 32.95-28.3 31.95-29.3 31.95-30.7ZM32.45-13.2L38.5-13.2 38.5-0.1Q38.1 0.05 37.37 0.18 36.65 0.3 35.75 0.3L35.75 0.3Q34.1 0.3 33.27-0.3 32.45-0.9 32.45-2.45L32.45-2.45 32.45-13.2ZM38.5-10.1L32.45-10.1 32.45-23.45Q32.85-23.55 33.6-23.68 34.35-23.8 35.2-23.8L35.2-23.8Q36.9-23.8 37.7-23.2 38.5-22.6 38.5-21L38.5-21 38.5-10.1ZM66.94-15.45L66.94-10.55 60.89-10.55 60.89-15.2Q60.89-17.45 59.62-18.5 58.34-19.55 56.2-19.55L56.2-19.55Q54.65-19.55 53.4-19.15 52.15-18.75 51.2-18.2L51.2-18.2 51.2-10.55 45.2-10.55 45.2-18.6Q45.2-19.8 45.67-20.55 46.15-21.3 47.2-22L47.2-22Q48.65-22.95 51.02-23.65 53.4-24.35 56.25-24.35L56.25-24.35Q61.3-24.35 64.12-22.1 66.94-19.85 66.94-15.45L66.94-15.45ZM45.2-13.05L51.2-13.05 51.2-0.1Q50.8 0.05 50.07 0.18 49.34 0.3 48.5 0.3L48.5 0.3Q46.8 0.3 45.99-0.3 45.2-0.9 45.2-2.45L45.2-2.45 45.2-13.05ZM60.89-13.05L66.94-13.05 66.94-0.1Q66.55 0.05 65.8 0.18 65.05 0.3 64.19 0.3L64.19 0.3Q62.5 0.3 61.7-0.3 60.89-0.9 60.89-2.45L60.89-2.45 60.89-13.05ZM76.09-8.7L75.84-12.95 89.34-14.95Q89.19-16.9 87.84-18.32 86.49-19.75 83.99-19.75L83.99-19.75Q81.39-19.75 79.67-17.95 77.94-16.15 77.89-12.8L77.89-12.8 78.04-10.3Q78.49-7.05 80.54-5.5 82.59-3.95 85.74-3.95L85.74-3.95Q87.84-3.95 89.62-4.58 91.39-5.2 92.49-5.95L92.49-5.95Q93.14-5.55 93.57-4.88 93.99-4.2 93.99-3.4L93.99-3.4Q93.99-2.15 92.84-1.23 91.69-0.3 89.77 0.2 87.84 0.7 85.34 0.7L85.34 0.7Q81.49 0.7 78.52-0.73 75.54-2.15 73.89-5 72.24-7.85 72.24-12.05L72.24-12.05Q72.24-15.1 73.17-17.4 74.09-19.7 75.72-21.25 77.34-22.8 79.47-23.58 81.59-24.35 83.99-24.35L83.99-24.35Q87.24-24.35 89.72-23 92.19-21.65 93.59-19.3 94.99-16.95 94.99-13.95L94.99-13.95Q94.99-12.55 94.29-11.88 93.59-11.2 92.34-11.05L92.34-11.05 76.09-8.7ZM100.74-19.7L106.94-19.7 106.94-0.35 104.04 0.05Q102.54 0.05 101.64-0.85 100.74-1.75 100.74-3.25L100.74-3.25 100.74-19.7ZM104.04 0.05L104.04-5.05 119.99-5.05Q120.29-4.65 120.52-4 120.74-3.35 120.74-2.6L120.74-2.6Q120.74-1.3 120.12-0.63 119.49 0.05 118.44 0.05L118.44 0.05 104.04 0.05ZM106.94-12.85L100.74-12.85 100.74-30.35Q101.14-30.45 101.97-30.6 102.79-30.75 103.64-30.75L103.64-30.75Q105.34-30.75 106.14-30.13 106.94-29.5 106.94-27.85L106.94-27.85 106.94-12.85ZM125.09-30.7L125.09-30.7Q125.09-32.15 126.09-33.13 127.09-34.1 128.59-34.1L128.59-34.1Q130.19-34.1 131.14-33.13 132.09-32.15 132.09-30.7L132.09-30.7Q132.09-29.3 131.14-28.3 130.19-27.3 128.59-27.3L128.59-27.3Q127.09-27.3 126.09-28.3 125.09-29.3 125.09-30.7ZM125.59-13.2L131.64-13.2 131.64-0.1Q131.24 0.05 130.51 0.18 129.79 0.3 128.89 0.3L128.89 0.3Q127.24 0.3 126.41-0.3 125.59-0.9 125.59-2.45L125.59-2.45 125.59-13.2ZM131.64-10.1L125.59-10.1 125.59-23.45Q125.99-23.55 126.74-23.68 127.49-23.8 128.34-23.8L128.34-23.8Q130.04-23.8 130.84-23.2 131.64-22.6 131.64-21L131.64-21 131.64-10.1ZM156.49-6.65L156.49-6.65Q156.49-3.2 153.91-1.23 151.34 0.75 146.44 0.75L146.44 0.75Q142.44 0.75 139.89-0.45 137.34-1.65 137.34-3.6L137.34-3.6Q137.34-4.45 137.74-5.15 138.14-5.85 138.78-6.3L138.78-6.3Q140.19-5.4 142.03-4.67 143.89-3.95 146.24-3.95L146.24-3.95Q150.53-3.95 150.53-6.6L150.53-6.6Q150.53-7.75 149.78-8.43 149.03-9.1 147.44-9.45L147.44-9.45 144.49-10.2Q140.89-11 139.16-12.7 137.44-14.4 137.44-17.2L137.44-17.2Q137.44-20.3 139.99-22.33 142.53-24.35 147.14-24.35L147.14-24.35Q149.53-24.35 151.41-23.88 153.28-23.4 154.36-22.53 155.44-21.65 155.44-20.4L155.44-20.4Q155.44-19.55 155.06-18.9 154.69-18.25 154.14-17.85L154.14-17.85Q153.53-18.25 152.49-18.68 151.44-19.1 150.16-19.38 148.89-19.65 147.59-19.65L147.59-19.65Q145.64-19.65 144.49-19.03 143.34-18.4 143.34-17.2L143.34-17.2Q143.34-16.35 143.99-15.73 144.64-15.1 146.19-14.75L146.19-14.75 148.78-14.1Q152.84-13.2 154.66-11.38 156.49-9.55 156.49-6.65ZM161.73-13.2L167.73-13.2 167.73-7.2Q167.73-5.55 168.73-4.85 169.73-4.15 171.48-4.15L171.48-4.15Q172.28-4.15 173.23-4.38 174.18-4.6 174.83-4.9L174.83-4.9Q175.18-4.5 175.48-3.93 175.78-3.35 175.78-2.6L175.78-2.6Q175.78-1.2 174.43-0.25 173.08 0.7 170.18 0.7L170.18 0.7Q166.28 0.7 164.01-1.05 161.73-2.8 161.73-6.8L161.73-6.8 161.73-13.2ZM165.33-18.4L165.33-23.1 175.18-23.1Q175.38-22.8 175.58-22.15 175.78-21.5 175.78-20.8L175.78-20.8Q175.78-19.55 175.23-18.98 174.68-18.4 173.68-18.4L173.68-18.4 165.33-18.4ZM167.73-11.85L161.73-11.85 161.73-29.85Q162.13-30 162.88-30.15 163.63-30.3 164.48-30.3L164.48-30.3Q166.13-30.3 166.93-29.68 167.73-29.05 167.73-27.5L167.73-27.5 167.73-11.85Z" fill="#ffffff" data-fill-palette-color="primary"></path></g></svg></g></svg></g></svg></g></svg></g><g><svg viewBox="0 0 155.63631874211407 109.76266841832326" height="109.76266841832326" width="155.63631874211407"><g><svg xmlns="http://www.w3.org/2000/svg" xmlns:xlink="http://www.w3.org/1999/xlink" version="1.1" x="0" y="0" viewBox="0.5 10.9 71.03853870664699 50.1" enable-background="new 0 0 72 72" xml:space="preserve" height="109.76266841832326" width="155.63631874211407" class="icon-icon-0" data-fill-palette-color="accent" id="icon-0"><g fill="#dc3545" data-fill-palette-color="accent"><path fill="#dc3545" d="M70.2 10.9H22.8C22.2 10.9 21.7 11.3 21.5 11.9L8.8 59.4C8.6 60.2 9.2 61 10.1 61H57.5C58.1 61 58.6 60.6 58.8 60L71.5 12.5C71.7 11.7 71.1 10.9 70.2 10.9M19.6 53.1L18.6 56.8C18.4 57.4 17.9 57.8 17.3 57.8H13.7C12.8 57.8 12.2 57 12.4 56.2L13.4 52.5C13.6 51.9 14.1 51.5 14.7 51.5H18.3C19.2 51.4 19.9 52.2 19.6 53.1M35.2 18.9L36.2 15.2C36.4 14.6 36.9 14.2 37.5 14.2H41.1C42 14.2 42.6 15 42.4 15.8L41.4 19.5C41.2 20.1 40.7 20.5 40.1 20.5H36.5C35.6 20.6 34.9 19.8 35.2 18.9M22.4 18.9L23.4 15.2C23.6 14.6 24.1 14.2 24.7 14.2H28.3C29.2 14.2 29.8 15 29.6 15.8L28.6 19.5C28.4 20.1 27.9 20.5 27.3 20.5H23.7C22.8 20.6 22.2 19.8 22.4 18.9M32.4 53.1L31.4 56.8C31.2 57.4 30.7 57.8 30.1 57.8H26.5C25.6 57.8 25 57 25.2 56.2L26.2 52.5C26.4 51.9 26.9 51.5 27.5 51.5H31.1C32 51.4 32.6 52.2 32.4 53.1M45.1 53.1L44.1 56.8C43.9 57.4 43.4 57.8 42.8 57.8H39.2C38.3 57.8 37.7 57 37.9 56.2L38.9 52.5C39.1 51.9 39.6 51.5 40.2 51.5H43.8C44.7 51.4 45.3 52.2 45.1 53.1M45.6 37.2L33.9 46.5C32.5 47.6 30.9 46.8 31.3 45.3L36.3 26.8C36.7 25.3 38.8 24.5 39.5 25.6L46.3 34.9C46.8 35.5 46.5 36.5 45.6 37.2M47.9 18.9L48.9 15.2C49.1 14.6 49.6 14.2 50.2 14.2H53.8C54.7 14.2 55.3 15 55.1 15.8L54.1 19.5C53.9 20.1 53.4 20.5 52.8 20.5H49.2C48.3 20.6 47.6 19.8 47.9 18.9M57.8 53.1L56.8 56.8C56.6 57.4 56.1 57.8 55.5 57.8H51.9C51 57.8 50.4 57 50.6 56.2L51.6 52.5C51.8 51.9 52.3 51.5 52.9 51.5H56.5C57.4 51.4 58 52.2 57.8 53.1M67.8 15.9L66.8 19.6C66.6 20.2 66.1 20.6 65.5 20.6H61.9C61 20.6 60.4 19.8 60.6 19L61.6 15.3C61.8 14.7 62.3 14.3 62.9 14.3H66.5C67.4 14.2 68 15 67.8 15.9" data-fill-palette-color="accent"></path><path fill="#dc3545" d="M3.2 24.1H12.6C13.6 24.1 14.3 23.3 14.3 22.4 14.3 21.4 13.5 20.7 12.6 20.7H3.2C2.2 20.7 1.5 21.5 1.5 22.4 1.5 23.4 2.3 24.1 3.2 24.1" data-fill-palette-color="accent"></path><path fill="#dc3545" d="M2.2 33.2H9.6C10.6 33.2 11.3 32.4 11.3 31.5 11.3 30.5 10.5 29.8 9.6 29.8H2.2C1.2 29.8 0.5 30.6 0.5 31.5S1.3 33.2 2.2 33.2" data-fill-palette-color="accent"></path><path fill="#dc3545" d="M8.4 38.8H3.2C2.2 38.8 1.5 39.6 1.5 40.5 1.5 41.5 2.3 42.2 3.2 42.2H8.4C9.4 42.2 10.1 41.4 10.1 40.5S9.3 38.8 8.4 38.8" data-fill-palette-color="accent"></path><path fill="#dc3545" d="M5 47.9H2.2C1.2 47.9 0.5 48.7 0.5 49.6 0.5 50.6 1.3 51.3 2.2 51.3H5C6 51.3 6.7 50.5 6.7 49.6 6.7 48.6 6 47.9 5 47.9" data-fill-palette-color="accent"></path></g></svg></g></svg></g></svg></g><defs></defs></svg><rect width="395.52" height="72.86334432919378" fill="none" stroke="none" visibility="hidden"></rect></g></svg></g></svg>